<?xml version="1.0" encoding="UTF-8" standalone="no"?>
<!-- Created with Inkscape (http://www.inkscape.org/) -->

<svg
   width="186.61343mm"
   height="58.493523mm"
   viewBox="0 0 186.61343 58.493523"
   version="1.1"
   id="svg1"
   xml:space="preserve"
   xmlns="http://www.w3.org/2000/svg"
   xmlns:svg="http://www.w3.org/2000/svg"><defs
     id="defs1"><clipPath
       clipPathUnits="userSpaceOnUse"
       id="clipPath128"><path
         id="path129"
         style="fill:#ff0000;fill-opacity:1;fill-rule:nonzero;stroke:none;stroke-width:0.264583"
         d="m -146.68872,638.22411 v 91.4373 c 0.71498,-0.003 1.42843,-0.0607 2.14406,-0.0501 h 6.60787 7.62537 5.62085 4.79401 3.72949 4.78886 5.47201 4.95474 4.708238 7.774202 5.774325 4.237984 4.882388 5.697845 5.410007 c 1.253021,0 2.505919,0 3.758943,0 1.599507,-5e-5 3.199167,0 4.798674,0 2.575896,-8e-5 5.151797,-1.8e-4 7.727693,0 1.663422,0 3.326972,0 4.990394,-0.004 1.409176,-0.003 2.818521,-0.006 4.227647,-0.0196 1.433859,-0.0164 2.867322,-0.0422 4.300514,-0.0904 1.883291,-0.069 3.762452,-0.20352 5.646166,-0.2589 1.518746,5e-5 3.037567,-2.1e-4 4.556312,0 1.861162,0 3.722483,0.003 5.583639,0.008 1.833357,0.008 3.666738,0.0196 5.499923,0.047 2.3549599,0.0395 4.711052,0.0946 7.0589999,0.29403 1.654252,0.15211 3.3080731,0.31578 4.95680311,0.51885 3.08202409,0.10382 6.17454799,0.22336 9.21649189,0.77102 1.2783201,0.24302 2.5466151,0.50832 3.8070031,0.83304 0.402738,0.10372 0.83692,0.1247 1.208195,0.31213 0.05411,0.0273 -0.120994,0.0106 -0.181384,0.0154 1.203841,0.15549 2.401843,0.25902 3.622517,0.18811 1.743813,0 3.48791,-5e-5 5.231723,0 1.445587,6e-5 2.891099,1.9e-4 4.336686,0 1.356743,0 2.713294,0 4.070035,0.003 1.567717,0.003 3.13541,0.006 4.703072,0.0206 1.7819,0.0222 3.564257,0.0528 5.344377,0.14005 2.631181,0.14962 5.260771,0.38925 7.843451,0.93689 2.047002,0.44955 4.078671,0.9544 6.140709,1.33479 1.202309,0.29604 2.406338,0.58285 3.627168,0.79325 1.461553,0.19153 2.926472,0.35981 4.38113,0.60047 -0.24456,0.0145 -0.979483,-0.0225 -0.734841,-0.009 1.268973,0.0683 2.542484,0.0555 3.811138,0.13694 1.495835,0.0649 2.992559,0.0866 4.489132,0.1137 5.70752,-0.85934 11.449894,-1.47945 17.192744,-2.05209 3.2649,-0.26707 6.509301,-0.70905 9.786491,-0.77255 0.860581,0.053 1.725485,0.0581 2.581755,0.15917 4.51792,0.53306 8.67112,2.39051 11.99306,5.949 1.06902,-0.0413 2.13851,-0.069 3.20755,-0.1101 2.64205,-0.10125 5.28466,-0.18359 7.92717,-0.26974 V 638.22345 Z" /></clipPath></defs><g
     id="layer1"
     transform="translate(431.55292,-641.32738)"><path
       style="fill:#1e3a5f;fill-opacity:1"
       d="m -90.7953,742.96771 c -0.50208,-0.14497 -0.8599,-0.42207 -0.8599,-0.6659 0,-0.27334 0.14561,-0.36175 0.42146,-0.25589 1.74078,0.668 3.0985,0.46442 2.96915,-0.4452 -0.0619,-0.43514 -0.39808,-0.68811 -1.30626,-0.98283 -0.67262,-0.21828 -1.41676,-0.56029 -1.65364,-0.76 -0.61189,-0.51588 -0.53306,-1.51956 0.15733,-2.00313 0.89389,-0.6261 3.38071,-0.50708 3.38071,0.16181 0,0.14656 -0.47176,0.18321 -1.12448,0.0874 -2.31537,-0.34002 -2.78625,1.27382 -0.53858,1.84584 1.3218,0.33639 1.92886,0.82884 1.92359,1.56041 -0.006,0.78549 -0.28593,1.14653 -1.14303,1.4724 -0.85285,0.32426 -1.05656,0.32289 -2.22635,-0.0149 z m 8.53281,0.15939 c -0.14552,-0.0449 -0.59201,-0.15389 -0.99219,-0.24215 -0.4209,-0.0928 -0.7276,-0.33758 -0.7276,-0.58062 0,-0.27565 0.14494,-0.36452 0.42145,-0.25841 1.74079,0.668 3.09851,0.46442 2.96916,-0.4452 -0.0619,-0.43514 -0.39809,-0.68811 -1.30626,-0.98283 -0.67262,-0.21828 -1.41676,-0.56029 -1.65365,-0.76 -0.57214,-0.48238 -0.54655,-1.4344 0.0531,-1.97712 0.72629,-0.65728 3.4849,-0.5554 3.4849,0.1287 0,0.14007 -0.54435,0.17318 -1.26825,0.0772 -0.98441,-0.13058 -1.34633,-0.0742 -1.6171,0.2521 -0.53508,0.64473 -0.16721,1.15862 1.08542,1.51625 1.41291,0.4034 2.06451,0.93647 2.06451,1.68896 0,0.91425 -1.53945,1.88388 -2.51354,1.58317 z m 31.45321,-0.2347 c -1.13129,-0.50451 -1.68759,-1.39275 -1.68759,-2.69458 0,-1.36978 0.74698,-2.37951 2.02043,-2.73112 2.03093,-0.56077 3.94859,0.88055 3.89492,2.92742 -0.0526,2.00674 -2.3224,3.348 -4.22776,2.49828 z m 2.7162,-1.0496 c 1.97106,-1.69543 -0.17658,-4.7021 -2.50033,-3.50044 -1.31683,0.68096 -1.54363,2.39483 -0.46028,3.47818 0.83645,0.83644 2.00386,0.84522 2.96061,0.0223 z m 40.7187,1.22792 c -1.69132,-0.42962 -2.57758,-2.14404 -2.00509,-3.87872 0.70912,-2.14864 4.20951,-2.42723 5.38991,-0.42897 0.96064,1.62623 0.16485,3.72938 -1.59615,4.21839 -0.55327,0.15364 -1.06548,0.2662 -1.13824,0.25013 -0.0728,-0.0161 -0.36546,-0.0884 -0.65043,-0.16083 z m 1.7923,-0.90855 c 0.78466,-0.41791 1.22087,-1.03106 1.23096,-1.73027 0.0324,-2.24669 -2.58867,-3.2175 -3.96452,-1.46839 -0.73717,0.93716 -0.65616,1.82849 0.24842,2.73306 0.82548,0.82549 1.55338,0.96186 2.48514,0.4656 z m 26.20466,0.83919 c -1.06626,-0.43029 -1.41737,-1.29746 -1.41737,-3.50068 0,-1.62742 0.0808,-2.05779 0.38618,-2.05779 0.30093,0 0.40313,0.47976 0.46302,2.17355 0.0729,2.06116 0.11447,2.19455 0.80445,2.57969 0.65413,0.36512 0.80107,0.36512 1.45521,0 0.68997,-0.38514 0.73157,-0.51853 0.80445,-2.57969 0.0599,-1.69379 0.16208,-2.17355 0.46302,-2.17355 0.30798,0 0.38447,0.44196 0.37776,2.18281 -0.009,2.37102 -0.23831,2.91397 -1.41944,3.36303 -0.84492,0.32124 -1.1476,0.32324 -1.91728,0.0126 z m 9.03367,0.0375 c -1.26112,-0.41007 -2.24896,-1.56893 -2.24896,-2.63835 0,-0.97707 0.75058,-2.3239 1.48041,-2.65643 1.39908,-0.63746 3.94923,-0.1083 3.44101,0.71401 -0.13429,0.21729 -0.36484,0.18494 -0.82342,-0.11554 -1.26813,-0.83091 -3.30425,0.36112 -3.30425,1.93445 0,0.78252 1.33719,2.19292 2.07909,2.19292 0.29277,0 0.85709,-0.12349 1.25407,-0.27442 1.18353,-0.44998 1.46098,0.17765 0.29406,0.66522 -1.02352,0.42766 -1.32787,0.45262 -2.17201,0.17814 z m 5.83186,0.0318 c -2.31096,-0.58702 -2.98341,-3.42652 -1.17235,-4.95043 1.40643,-1.18343 3.98478,-0.75914 4.68169,0.77041 0.77054,1.69115 -0.0428,3.62479 -1.72066,4.09072 -0.55328,0.15364 -1.06549,0.2662 -1.13825,0.25013 -0.0728,-0.0161 -0.36545,-0.0884 -0.65043,-0.16083 z m 1.95443,-0.98784 c 2.02035,-1.04476 1.0233,-4.11083 -1.3368,-4.11083 -0.77889,0 -2.08386,1.40836 -2.08386,2.24896 0,0.85308 1.30929,2.24896 2.10945,2.24896 0.30946,0 0.89951,-0.17419 1.31121,-0.38709 z m 12.54811,1.00008 c -1.15146,-0.22998 -1.54255,-1.04411 -1.64228,-3.4187 -0.0798,-1.90019 -0.032,-2.22137 0.33073,-2.22137 0.35129,0 0.42403,0.3404 0.42403,1.98437 0,2.15195 0.46983,3.04271 1.60489,3.04271 1.3473,0 1.57011,-0.39556 1.57011,-2.78743 0,-1.81441 0.0754,-2.23965 0.39687,-2.23965 0.62229,0 0.56589,4.24317 -0.0661,4.97656 -0.4839,0.56149 -1.64974,0.85694 -2.6182,0.66351 z m -153.81668,-2.86195 v -2.77812 h 1.98437 c 1.14653,0 1.98438,0.11171 1.98438,0.26458 0,0.14699 -0.70556,0.26458 -1.5875,0.26458 h -1.5875 v 0.92604 0.92605 h 1.45521 c 1.11713,0 1.4552,0.0922 1.4552,0.39687 0,0.30467 -0.33807,0.39688 -1.4552,0.39688 h -1.45521 v 0.92604 0.92604 h 1.71979 c 0.97014,0 1.71979,0.11533 1.71979,0.26458 0,0.15434 -0.88194,0.26459 -2.11667,0.26459 h -2.11666 z m 5.29166,0 c 0,-2.26137 0.072,-2.77812 0.38695,-2.77812 0.30617,0 0.40283,0.51091 0.46302,2.44739 l 0.0761,2.4474 1.52135,0.0794 c 2.2286,0.11624 1.85803,0.58211 -0.46302,0.58211 h -1.98438 z m 12.43542,0 c 0,-2.29305 0.0693,-2.77812 0.39688,-2.77812 0.32757,0 0.39687,0.48507 0.39687,2.77812 0,2.29306 -0.0693,2.77813 -0.39687,2.77813 -0.32758,0 -0.39688,-0.48507 -0.39688,-2.77813 z m 8.73125,0.26458 v -2.51354 h -0.92604 c -0.50932,0 -0.92604,-0.11906 -0.92604,-0.26458 0,-0.3388 4.41119,-0.35437 4.62013,-0.0163 0.0844,0.13655 -0.29553,0.28538 -0.84428,0.33073 l -0.99773,0.0824 -0.0761,2.4474 c -0.0602,1.93649 -0.15686,2.4474 -0.46302,2.4474 -0.31239,0 -0.38695,-0.48434 -0.38695,-2.51355 z m 3.70417,-0.26458 v -2.77812 h 1.98437 c 1.14653,0 1.98438,0.11171 1.98438,0.26458 0,0.14699 -0.70556,0.26458 -1.5875,0.26458 h -1.5875 v 0.92604 0.92605 h 1.4552 c 1.11713,0 1.45521,0.0922 1.45521,0.39687 0,0.30467 -0.33808,0.39688 -1.45521,0.39688 h -1.4552 v 0.92604 0.92604 h 1.71979 c 0.97014,0 1.71979,0.11533 1.71979,0.26458 0,0.15434 -0.88195,0.26459 -2.11667,0.26459 h -2.11666 z m 5.55625,0 c 0,-2.04735 0.087,-2.77751 0.33072,-2.77581 0.18191,10e-4 0.80698,0.83367 1.38907,1.84977 0.58208,1.0161 1.13406,1.84849 1.22661,1.84977 0.0926,10e-4 0.66342,-0.83112 1.26859,-1.84977 1.57382,-2.64913 1.87042,-2.50228 1.87042,0.92604 0,2.25743 -0.0723,2.77813 -0.38574,2.77813 -0.29811,0 -0.4033,-0.46586 -0.46302,-2.05052 l -0.0773,-2.05053 -0.94031,1.70251 c -0.51717,0.93637 -1.05296,1.73864 -1.19063,1.78282 -0.13767,0.0442 -0.66085,-0.63265 -1.16262,-1.50407 -0.50177,-0.87141 -0.97802,-1.58465 -1.05833,-1.58498 -0.0803,-3.2e-4 -0.10649,0.83311 -0.0582,1.85209 0.0735,1.55017 0.0195,1.85268 -0.33073,1.85268 -0.35515,0 -0.41858,-0.42103 -0.41858,-2.77813 z m 8.16103,3.7e-4 c 0.83444,-1.88187 1.37037,-2.77787 1.66171,-2.77812 0.38887,-3.4e-4 2.19772,3.30251 2.73395,4.99201 0.25978,0.81851 -0.48783,0.73434 -0.86689,-0.0976 -0.27157,-0.59604 -0.45475,-0.66146 -1.85208,-0.66146 -1.39733,0 -1.58051,0.0654 -1.85208,0.66146 -0.16576,0.3638 -0.47123,0.66146 -0.67883,0.66146 -0.27263,0 -0.0354,-0.77139 0.85422,-2.77776 z m 2.45364,-0.31918 c -0.26894,-0.68466 -0.59437,-1.27949 -0.72318,-1.32183 -0.20854,-0.0685 -1.16024,1.87633 -1.16024,2.37103 0,0.10761 0.53379,0.19565 1.1862,0.19565 h 1.18621 z m 12.13949,0.31881 v -2.77812 h 1.73182 c 1.48594,0 1.82402,0.0922 2.38125,0.64943 1.54131,1.54131 0.23819,3.31932 -2.43276,3.31932 -0.80868,0 -0.88656,0.0697 -0.88656,0.79375 0,0.52916 -0.13229,0.79375 -0.39687,0.79375 -0.32758,0 -0.39688,-0.48507 -0.39688,-2.77813 z m 3.55298,-0.0189 c 0.99821,-0.99821 -0.0787,-2.34228 -1.74832,-2.18207 -0.84664,0.0812 -0.88155,0.13005 -0.95926,1.34108 l -0.0806,1.25677 h 1.18622 c 0.72561,0 1.34767,-0.16145 1.602,-0.41578 z m 2.26785,0.0189 v -2.77812 h 2.13872 c 1.48968,0 2.10805,0.092 2.03766,0.30316 -0.0594,0.17815 -0.75041,0.31454 -1.6757,0.33073 l -1.57463,0.0276 -0.0829,0.8599 -0.0829,0.8599 h 1.47197 c 1.07947,0 1.47197,0.0979 1.47197,0.36736 0,0.26827 -0.37467,0.36418 -1.38906,0.35557 l -1.38906,-0.0118 v 0.9012 0.9012 l 1.65364,0.0788 c 2.40188,0.11441 2.02977,0.58269 -0.46302,0.58269 h -2.11667 z m 5.55625,0 v -2.77812 h 1.66092 c 2.1191,0 2.837,0.45141 2.837,1.78388 0,0.59943 -0.20096,1.17405 -0.53491,1.52952 l -0.53491,0.56938 0.53491,0.68003 c 0.62519,0.7948 0.66274,0.99344 0.18779,0.99344 -0.19091,0 -0.6112,-0.35719 -0.93396,-0.79375 -0.45595,-0.61671 -0.79163,-0.79375 -1.50497,-0.79375 -0.84374,0 -0.91812,0.0643 -0.91812,0.79375 0,0.52916 -0.13229,0.79375 -0.39687,0.79375 -0.32758,0 -0.39688,-0.48507 -0.39688,-2.77813 z m 3.38667,0.0794 c 0.17463,-0.17463 0.3175,-0.65383 0.3175,-1.06489 0,-0.82753 -0.73623,-1.26345 -2.13389,-1.26345 -0.75544,0 -0.77653,0.0359 -0.77653,1.32292 v 1.32292 h 1.13771 c 0.62574,0 1.28059,-0.14288 1.45521,-0.3175 z m 1.91891,2.50031 c 0.008,-0.10914 0.52889,-1.32953 1.15829,-2.71198 1.54755,-3.39908 1.7944,-3.40431 3.3078,-0.0701 0.64499,1.421 1.21756,2.67293 1.27238,2.78207 0.0548,0.10914 -0.0885,0.19844 -0.31848,0.19844 -0.22999,0 -0.55378,-0.29766 -0.71954,-0.66146 -0.27157,-0.59604 -0.45476,-0.66146 -1.85209,-0.66146 -1.39732,0 -1.58051,0.0654 -1.85208,0.66146 -0.27191,0.59678 -1.03037,0.94928 -0.99628,0.46302 z m 3.95484,-1.8846 c 0,-0.12702 -0.24897,-0.79378 -0.55326,-1.48169 l -0.55327,-1.25075 -0.63736,1.37568 c -0.35055,0.75662 -0.63736,1.42338 -0.63736,1.48169 0,0.0583 0.53578,0.10602 1.19063,0.10602 0.65484,0 1.19062,-0.10392 1.19062,-0.23095 z m 3.64795,-0.36436 -0.0761,-2.4474 -0.99218,-0.0821 c -1.95015,-0.16141 -0.94808,-0.57934 1.38906,-0.57934 1.7767,0 2.38125,0.0873 2.38125,0.34374 0,0.23706 -0.28742,0.31019 -0.92604,0.23564 l -0.92604,-0.10811 v 2.54249 c 0,2.0546 -0.0743,2.54249 -0.38695,2.54249 -0.30617,0 -0.40283,-0.51091 -0.46302,-2.4474 z m 3.76038,-0.33073 c 0,-2.29305 0.0693,-2.77812 0.39688,-2.77812 0.32758,0 0.39687,0.48507 0.39687,2.77812 0,2.29306 -0.0693,2.77813 -0.39687,2.77813 -0.32758,0 -0.39688,-0.48507 -0.39688,-2.77813 z m 2.83323,0 c -0.99767,-2.29549 -1.13032,-2.7779 -0.76356,-2.77684 0.30744,8.8e-4 0.72852,0.69178 1.36992,2.24767 0.50932,1.23552 0.9926,2.24698 1.07396,2.24768 0.0814,7.1e-4 0.55686,-0.96609 1.05667,-2.14843 0.80085,-1.89448 1.35888,-2.65105 1.70216,-2.30777 0.0582,0.0582 -0.43896,1.32306 -1.10479,2.81081 -0.86054,1.92285 -1.34307,2.70501 -1.66876,2.70501 -0.32876,0 -0.79923,-0.78472 -1.6656,-2.77813 z m 14.36469,0 v -2.77812 h 1.83178 c 1.57939,0 1.94271,0.0933 2.63684,0.6774 1.47172,1.23838 1.33126,3.67188 -0.25942,4.49445 -0.42805,0.22135 -1.47837,0.3844 -2.47627,0.3844 h -1.73293 z m 3.33465,1.97397 c 1.48895,-0.56609 1.87243,-2.08906 0.8309,-3.29991 -0.48048,-0.55859 -0.85473,-0.70343 -1.91823,-0.74236 l -1.32128,-0.0484 -0.0769,2.18282 -0.0768,2.18281 h 0.91952 c 0.50573,0 1.24498,-0.12374 1.64278,-0.27499 z m 3.54452,-1.97397 v -2.77812 h 1.98437 c 1.14653,0 1.98437,0.11171 1.98437,0.26458 0,0.14699 -0.70555,0.26458 -1.58749,0.26458 h -1.5875 v 0.92604 0.92605 h 1.32291 c 1.03508,0 1.32292,0.0919 1.32292,0.42241 0,0.34273 -0.24957,0.40511 -1.32308,0.33073 l -1.32308,-0.0917 1.6e-4,0.99219 1.7e-4,0.99219 h 1.5875 c 0.88194,0 1.58749,0.11759 1.58749,0.26458 0,0.15287 -0.83784,0.26459 -1.98437,0.26459 H 6.7698 Z m 8.73124,0.26458 v -2.51354 H 14.575 c -0.50932,0 -0.92604,-0.11906 -0.92604,-0.26458 0,-0.15679 0.97014,-0.26458 2.38125,-0.26458 2.33714,0 3.33922,0.41793 1.38906,0.57934 l -0.99218,0.0821 -0.0761,2.4474 c -0.0602,1.93649 -0.15685,2.4474 -0.46302,2.4474 -0.31238,0 -0.38695,-0.48434 -0.38695,-2.51355 z m 25.13542,-0.26458 c 0,-2.04735 0.087,-2.77751 0.33073,-2.77581 0.1819,10e-4 0.80698,0.83358 1.38906,1.84957 0.58209,1.01598 1.17596,1.80917 1.31972,1.76263 0.14377,-0.0465 0.73807,-0.87884 1.32067,-1.84956 0.58261,-0.97072 1.20913,-1.76495 1.39226,-1.76495 0.24644,0 0.33298,0.72202 0.33298,2.77812 0,2.29306 -0.0693,2.77813 -0.39688,2.77813 -0.31795,0 -0.39847,-0.40779 -0.40488,-2.05052 l -0.008,-2.05053 -0.88299,1.53923 c -1.3221,2.30469 -1.29795,2.30077 -2.51053,0.40743 l -1.07727,-1.68207 -0.006,1.91823 c -0.004,1.52623 -0.0867,1.91823 -0.40243,1.91823 -0.32758,0 -0.39687,-0.48507 -0.39687,-2.77813 z m 14.2875,0 c 0,-2.09898 0.0838,-2.77812 0.34297,-2.77812 0.18863,0 1.04239,0.89297 1.89725,1.98437 0.85486,1.09141 1.62326,1.98465 1.70755,1.98499 0.0843,3.4e-4 0.1141,-0.89263 0.0662,-1.98437 -0.0732,-1.66894 -0.0205,-1.98499 0.33073,-1.98499 0.35413,0 0.41778,0.42329 0.41778,2.77812 0,2.06133 -0.0862,2.77813 -0.33416,2.77813 -0.18379,0 -1.04699,-0.89081 -1.91823,-1.97956 l -1.58407,-1.97957 -0.0773,1.97957 c -0.0594,1.5225 -0.16634,1.97956 -0.46302,1.97956 -0.31344,0 -0.38574,-0.5207 -0.38574,-2.77813 z m 6.61458,0 c 0,-2.29305 0.0693,-2.77812 0.39688,-2.77812 0.32758,0 0.39687,0.48507 0.39687,2.77812 0,2.29306 -0.0693,2.77813 -0.39687,2.77813 -0.32758,0 -0.39688,-0.48507 -0.39688,-2.77813 z m 2.38125,0 v -2.77812 l 1.78594,9.9e-4 c 2.91998,0.002 4.05282,1.04457 3.6787,3.38681 -0.25127,1.57311 -1.22075,2.16554 -3.54641,2.16713 l -1.91823,10e-4 z m 3.69856,1.85499 c 0.89508,-0.46287 1.177,-1.16937 0.94983,-2.38031 -0.19482,-1.03848 -1.50965,-1.80514 -2.87037,-1.67366 l -0.85198,0.0823 -0.0791,1.82584 c -0.0435,1.00421 -0.0175,1.98647 0.0578,2.18281 0.18413,0.47982 1.83674,0.45793 2.79382,-0.037 z m 2.38686,0.79747 c 0,-0.0691 0.35317,-0.89677 0.78483,-1.83924 0.43166,-0.94247 0.96137,-2.13607 1.17713,-2.65246 0.66789,-1.59849 1.19918,-1.2514 2.51804,1.64503 0.64498,1.41651 1.21756,2.66476 1.27238,2.7739 0.0548,0.10914 -0.0885,0.19844 -0.31848,0.19844 -0.22999,0 -0.55378,-0.29766 -0.71954,-0.66146 -0.27157,-0.59604 -0.45476,-0.66146 -1.85209,-0.66146 -1.39732,0 -1.58051,0.0654 -1.85208,0.66146 -0.25138,0.55172 -1.01019,0.95418 -1.01019,0.53579 z m 3.96875,-1.95737 c 0,-0.12702 -0.25502,-0.80746 -0.56671,-1.51208 l -0.56671,-1.28114 -0.62391,1.41373 c -0.34316,0.77754 -0.62392,1.45798 -0.62392,1.51208 0,0.0541 0.53578,0.0984 1.19062,0.0984 0.65485,0 1.19063,-0.10392 1.19063,-0.23095 z m 2.91042,-0.69509 v -2.77812 h 1.60063 c 2.638625,0 3.691035,0.83068 3.691035,2.91337 0,0.85868 -0.16751,1.26359 -0.7734,1.86948 -0.70909,0.70909 -0.92907,0.7734 -2.645835,0.7734 h -1.87243 z m 4.018075,1.46 c 0.52907,-0.65338 0.62711,-1.88106 0.21215,-2.65644 -0.2699,-0.50431 -1.740455,-1.04831 -2.841165,-1.05104 -0.57147,-10e-4 -0.59531,0.0899 -0.59531,2.28114 v 2.28263 l 1.37224,-0.13186 c 0.998015,-0.0959 1.503105,-0.29346 1.852085,-0.72443 z M -103.89218,728.16128 c -0.55528,-0.32342 -0.6292,-2.14089 -0.15186,-3.73408 0.44716,-1.4925 2.06802,-3.20667 3.71377,-3.92756 1.20628,-0.52839 1.95494,-0.62904 5.43392,-0.7305 l 4.0349,-0.11768 v 3.98202 c 0,3.26725 -0.0746,4.05666 -0.41577,4.3978 -0.3535,0.3535 -1.29472,0.41457 -6.28386,0.40773 -3.49136,-0.005 -6.05561,-0.11728 -6.3311,-0.27773 z m 28.33503,-0.0135 c -0.45757,-0.16763 -1.96328,-1.91543 -4.31289,-5.00634 -2.15986,-2.84128 -3.9299,-4.91427 -4.40654,-5.16075 -0.67687,-0.35003 -1.89796,-0.39973 -8.12252,-0.33059 -6.9889,0.0776 -7.38675,0.10931 -8.64881,0.68874 -0.7276,0.33406 -1.7694,0.96475 -2.3151,1.40154 -0.9533,0.76302 -0.99219,0.77153 -0.99219,0.21707 0,-2.10145 1.76568,-4.54166 4.02493,-5.56255 l 1.39903,-0.63218 12.03854,-0.0825 c 6.6212,-0.0454 12.54958,-0.008 13.17418,0.084 1.59677,0.23421 2.36353,0.99688 7.17635,7.13811 5.21811,6.65838 5.20608,6.64039 4.78379,7.14922 -0.27564,0.33212 -1.35199,0.3922 -6.71203,0.37466 -3.51106,-0.0115 -6.7001,-0.13678 -7.08674,-0.27842 z m 37.67133,-0.47722 c -8.18202,-2.01002 -13.41372,-8.9531 -12.95431,-17.19191 0.46562,-8.35034 6.35018,-14.34244 15.37301,-15.65398 3.7477,-0.54476 8.46047,0.27425 11.9302,2.07328 2.80486,1.4543 5.59636,4.3434 6.96401,7.20748 1.25516,2.6285 1.72844,4.65706 1.72844,7.40833 0,7.74672 -5.13354,14.14971 -12.94647,16.14792 -2.65829,0.67988 -7.34669,0.684 -10.09488,0.009 z m 8.29442,-6.54294 c 2.61737,-0.88383 4.66469,-2.63576 5.80582,-4.96813 2.34184,-4.78656 0.83463,-10.51937 -3.49358,-13.28809 -3.11384,-1.9919 -6.9096,-2.17173 -10.31499,-0.48869 -2.14478,1.06 -3.40808,2.35067 -4.52524,4.62327 -0.65142,1.32518 -0.72019,1.74296 -0.72019,4.37549 0,2.58216 0.0776,3.0759 0.68821,4.3777 1.20975,2.57921 3.22095,4.39957 5.87342,5.31607 1.77837,0.61449 4.94841,0.63932 6.68655,0.0524 z m 26.87118,6.17101 c -0.20491,-0.24691 -0.31528,-4.20737 -0.36312,-13.03073 l -0.0687,-12.67602 -4.89479,-0.0695 c -4.22246,-0.06 -4.94022,-0.13051 -5.22552,-0.51359 -0.51012,-0.68496 -0.4439,-4.95448 0.085,-5.48342 0.36729,-0.36729 2.01588,-0.41578 14.13631,-0.41578 12.12044,0 13.76902,0.0485 14.13631,0.41578 0.31483,0.31483 0.41479,0.97324 0.41172,2.71198 -0.002,1.26291 -0.1167,2.47479 -0.25439,2.69308 -0.20289,0.32163 -1.19278,0.42195 -5.22147,0.52916 l -4.97113,0.13229 -0.13229,12.7 c -0.0728,6.985 -0.22861,12.84883 -0.34634,13.03073 -0.31478,0.48636 -6.88598,0.46474 -7.29159,-0.024 z m 31.75,0 c -0.20491,-0.24691 -0.31528,-4.20737 -0.36312,-13.03073 l -0.0687,-12.67602 -4.87509,-0.0723 c -3.04895,-0.0452 -5.00636,-0.18124 -5.22552,-0.36313 -0.24742,-0.20533 -0.35043,-1.05635 -0.35043,-2.89495 0,-2.30384 0.059,-2.63572 0.51177,-2.87802 0.77799,-0.41637 27.59208,-0.37463 28.01031,0.0436 0.20541,0.20542 0.3175,1.26959 0.3175,3.0144 0,2.21515 -0.0748,2.72559 -0.41851,2.8575 -0.23019,0.0883 -2.48535,0.1606 -5.01147,0.1606 -2.85507,0 -4.65646,0.10275 -4.76078,0.27155 -0.0923,0.14935 -0.15469,5.72655 -0.13863,12.39379 0.0183,7.59718 -0.0706,12.3847 -0.23812,12.82533 l -0.26731,0.70308 h -3.41373 c -2.53133,0 -3.48983,-0.0917 -3.70813,-0.35471 z m 15.45727,-0.12993 c -0.0897,-0.28257 0.27857,-1.41337 0.88318,-2.71198 0.57035,-1.22504 2.64335,-5.73968 4.60667,-10.03254 1.96331,-4.29287 4.06949,-8.87677 4.68039,-10.18646 0.6109,-1.30969 1.70719,-3.69094 2.43618,-5.29167 0.729,-1.60073 1.51004,-3.11877 1.73565,-3.37344 0.35298,-0.39845 0.91532,-0.46302 4.03234,-0.46302 3.11784,0 3.67896,0.0645 4.03017,0.46302 0.65752,0.74616 14.529695,31.02107 14.436555,31.50663 -0.0735,0.383 -0.57255,0.45164 -3.749295,0.51562 -2.20028,0.0443 -3.79364,-0.0333 -3.98764,-0.19434 -0.1777,-0.14748 -0.83482,-1.49038 -1.46028,-2.98422 -0.62545,-1.49385 -1.37924,-2.92965 -1.67508,-3.19068 -0.49462,-0.43641 -1.13187,-0.46834 -7.9215,-0.39687 -7.06275,0.0743 -7.39686,0.10071 -7.68863,0.60688 -0.16776,0.29105 -0.81081,1.71073 -1.429,3.15486 -0.61819,1.44413 -1.27611,2.72223 -1.46204,2.84022 -0.18593,0.11799 -1.90761,0.21635 -3.82595,0.21858 -3.15076,0.004 -3.50277,-0.0428 -3.64172,-0.48059 z m 23.02182,-12.77236 c 0.21011,-0.33996 -4.3492,-11.08466 -4.70357,-11.08466 -0.26288,0 -0.80115,1.15529 -3.26298,7.00345 -0.91701,2.17842 -1.60989,4.05365 -1.53972,4.16719 0.20741,0.33559 9.29654,0.25338 9.50627,-0.086 z m -132.85006,2.5534 c -1.14896,-1.14896 -0.90614,-2.13489 0.96408,-3.91454 l 1.61351,-1.53536 -18.4807,0.0731 -18.48069,0.0731 -1.5875,0.74256 c -0.87313,0.40841 -1.91492,1.05577 -2.3151,1.43857 l -0.72761,0.696 0.006,-0.9094 c 0.0132,-2.07313 1.64057,-4.34614 3.90901,-5.46002 l 1.50914,-0.74104 18.10446,-0.075 18.10446,-0.075 -1.63415,-1.5263 c -1.31462,-1.22787 -1.63415,-1.68478 -1.63415,-2.33676 0,-1.18566 0.9015,-2.20473 1.95037,-2.20473 0.7279,0 1.3778,0.49015 4.41257,3.3279 3.56513,3.33368 4.19354,4.07181 4.21102,4.94624 0.0119,0.59405 -1.48158,2.21901 -5.07593,5.52289 -3.10408,2.85323 -3.70888,3.09742 -4.8486,1.9577 z m -38.9158,-9.91269 c 0.37531,-2.34703 1.70968,-4.04614 4.00283,-5.09698 1.25601,-0.57557 1.7116,-0.61308 9.00827,-0.74179 8.84796,-0.15607 7.61471,0.20006 12.08921,-3.49108 1.56268,-1.2891 3.14801,-2.46045 3.52296,-2.603 0.37494,-0.14255 3.39967,-0.25919 6.7216,-0.25919 5.50798,0 6.05558,0.0408 6.21813,0.46302 0.13657,0.3548 -0.80172,1.42839 -4.01431,4.5932 -2.3059,2.2716 -4.60579,4.35519 -5.11087,4.63021 -0.85664,0.46644 -1.82471,0.50891 -14.41207,0.63232 -13.37536,0.13113 -13.50536,0.13762 -14.81667,0.73967 -0.7276,0.33406 -1.78789,0.9796 -2.35619,1.43455 l -1.03328,0.82717 z m -0.0982,-14.54192 c 0,-8.30047 0.0532,-9.57178 0.41577,-9.93435 0.3532,-0.35319 1.30667,-0.41577 6.335,-0.41577 5.81682,0 5.92635,0.0102 6.3311,0.58804 0.35033,0.50017 0.41188,1.76199 0.41188,8.44436 v 7.85633 l -4.43177,0.0903 c -4.86937,0.0992 -5.91476,0.37064 -8.06979,2.09554 l -0.99219,0.79416 z m 15.875,6.47173 c 0,-0.0613 2.27988,-1.99608 5.0664,-4.29948 2.78651,-2.3034 7.61915,-6.30135 10.73919,-8.88435 3.12004,-2.58299 5.82463,-4.69635 6.01019,-4.69635 0.18556,0 1.26551,0.74414 2.39988,1.65364 1.13437,0.90951 2.63881,2.10555 3.3432,2.65788 l 1.28072,1.00423 v -1.74253 -1.74254 l 2.18281,0.0768 2.18282,0.0769 0.13229,3.60366 0.13229,3.60366 2.51354,2.0369 c 1.38245,1.12029 2.54359,2.11802 2.58032,2.21717 0.0367,0.0992 -0.94031,0.12075 -2.17117,0.048 l -2.23794,-0.1323 -5.99359,-4.89479 c -3.29648,-2.69213 -6.09612,-4.93329 -6.22144,-4.98034 -0.12531,-0.0471 -2.69115,1.977 -5.70186,4.49791 -3.01072,2.52091 -6.27255,5.23832 -7.24852,6.03868 -0.97598,0.80037 -2.29646,1.88936 -2.93442,2.41998 -0.63795,0.53062 -1.63617,1.0955 -2.21825,1.25529 -1.01603,0.27892 -3.83646,0.41272 -3.83646,0.182 z"
       id="path131"
       clip-path="url(#clipPath128)"
       transform="translate(-327.11553,-39.759299)" /></g></svg>
